REM DIRINDEX 1\2,1\3,1\4
REM DIRNAME folder01,folder02,folder03,folder04
TITLE ""
FILE "Track97.mp3" MP3
  TRACK 01 AUDIO
    TITLE "4:cjc141_577"
    INDEX 01 00:00:00
  TRACK 02 AUDIO
    TITLE "2:cjc141_578"
    INDEX 01 00:01:73
  TRACK 03 AUDIO
    TITLE "0:"
    INDEX 01 00:17:61
  TRACK 04 AUDIO
    TITLE "3:cjc141_579"
    INDEX 01 00:19:40
  TRACK 05 AUDIO
    TITLE "0:"
    INDEX 01 00:33:13
